<mxfile host="app.diagrams.net" modified="2023-04-29T14:22:03.535Z" agent="Mozilla/5.0 (Windows NT 10.0; Win64; x64) AppleWebKit/537.36 (KHTML, like Gecko) Chrome/112.0.0.0 Safari/537.36" etag="kekuJJ18Jf_BXAhHcBzd" version="21.2.3" type="github">
  <diagram name="Page-1" id="XKvRj0N_p41jtoMbIWnJ">
    <mxGraphModel dx="1050" dy="549" grid="1" gridSize="10" guides="1" tooltips="1" connect="1" arrows="1" fold="1" page="1" pageScale="1" pageWidth="850" pageHeight="1100" math="0" shadow="0">
      <root>
        <mxCell id="0" />
        <mxCell id="1" parent="0" />
        <mxCell id="ZezLSghMhoon8Cjvw3io-2" value="Component&amp;nbsp;Diagram" style="text;html=1;align=center;verticalAlign=middle;resizable=0;points=[];autosize=1;strokeColor=none;fillColor=none;fontSize=15;" vertex="1" parent="1">
          <mxGeometry x="345" y="20" width="160" height="30" as="geometry" />
        </mxCell>
        <mxCell id="ZezLSghMhoon8Cjvw3io-6" value="" style="rounded=0;whiteSpace=wrap;html=1;direction=south;" vertex="1" parent="1">
          <mxGeometry x="690" y="70" width="140" height="150" as="geometry" />
        </mxCell>
        <mxCell id="ZezLSghMhoon8Cjvw3io-7" value="ProcessingService" style="rounded=0;whiteSpace=wrap;html=1;" vertex="1" parent="1">
          <mxGeometry x="697.5" y="100" width="125" height="50" as="geometry" />
        </mxCell>
        <mxCell id="ZezLSghMhoon8Cjvw3io-8" value="Consumers" style="text;html=1;align=center;verticalAlign=middle;resizable=0;points=[];autosize=1;strokeColor=none;fillColor=none;" vertex="1" parent="1">
          <mxGeometry x="720" y="70" width="80" height="30" as="geometry" />
        </mxCell>
        <mxCell id="ZezLSghMhoon8Cjvw3io-9" value="&lt;font style=&quot;font-size: 28px;&quot;&gt;...&lt;/font&gt;" style="rounded=0;whiteSpace=wrap;html=1;" vertex="1" parent="1">
          <mxGeometry x="697.5" y="160" width="125" height="50" as="geometry" />
        </mxCell>
        <mxCell id="ZezLSghMhoon8Cjvw3io-10" value="" style="rounded=1;whiteSpace=wrap;html=1;" vertex="1" parent="1">
          <mxGeometry x="210" y="60" width="430" height="210" as="geometry" />
        </mxCell>
        <mxCell id="ZezLSghMhoon8Cjvw3io-11" value="&lt;font style=&quot;font-size: 15px;&quot;&gt;RabbitMQ&lt;/font&gt;" style="text;html=1;align=center;verticalAlign=middle;resizable=0;points=[];autosize=1;strokeColor=none;fillColor=none;" vertex="1" parent="1">
          <mxGeometry x="380" y="70" width="90" height="30" as="geometry" />
        </mxCell>
        <mxCell id="ZezLSghMhoon8Cjvw3io-13" value="" style="rounded=0;whiteSpace=wrap;html=1;direction=south;" vertex="1" parent="1">
          <mxGeometry x="240" y="100" width="105" height="150" as="geometry" />
        </mxCell>
        <mxCell id="ZezLSghMhoon8Cjvw3io-14" value="pdfExchange" style="rounded=0;whiteSpace=wrap;html=1;" vertex="1" parent="1">
          <mxGeometry x="247.5" y="130" width="87.5" height="50" as="geometry" />
        </mxCell>
        <mxCell id="ZezLSghMhoon8Cjvw3io-15" value="Exchanges" style="text;html=1;align=center;verticalAlign=middle;resizable=0;points=[];autosize=1;strokeColor=none;fillColor=none;" vertex="1" parent="1">
          <mxGeometry x="251.25" y="100" width="80" height="30" as="geometry" />
        </mxCell>
        <mxCell id="ZezLSghMhoon8Cjvw3io-16" value="&lt;font style=&quot;font-size: 28px;&quot;&gt;...&lt;/font&gt;" style="rounded=0;whiteSpace=wrap;html=1;" vertex="1" parent="1">
          <mxGeometry x="247.5" y="190" width="87.5" height="50" as="geometry" />
        </mxCell>
        <mxCell id="ZezLSghMhoon8Cjvw3io-21" value="" style="rounded=0;whiteSpace=wrap;html=1;direction=south;" vertex="1" parent="1">
          <mxGeometry x="505" y="100" width="105" height="150" as="geometry" />
        </mxCell>
        <mxCell id="ZezLSghMhoon8Cjvw3io-30" style="edgeStyle=orthogonalEdgeStyle;rounded=0;orthogonalLoop=1;jettySize=auto;html=1;exitX=1;exitY=0.5;exitDx=0;exitDy=0;entryX=0;entryY=0.5;entryDx=0;entryDy=0;" edge="1" parent="1" source="ZezLSghMhoon8Cjvw3io-22" target="ZezLSghMhoon8Cjvw3io-7">
          <mxGeometry relative="1" as="geometry" />
        </mxCell>
        <mxCell id="ZezLSghMhoon8Cjvw3io-22" value="pdfQueue" style="rounded=0;whiteSpace=wrap;html=1;" vertex="1" parent="1">
          <mxGeometry x="513.75" y="130" width="87.5" height="50" as="geometry" />
        </mxCell>
        <mxCell id="ZezLSghMhoon8Cjvw3io-23" value="Queues" style="text;html=1;align=center;verticalAlign=middle;resizable=0;points=[];autosize=1;strokeColor=none;fillColor=none;" vertex="1" parent="1">
          <mxGeometry x="522.5" y="100" width="70" height="30" as="geometry" />
        </mxCell>
        <mxCell id="ZezLSghMhoon8Cjvw3io-24" value="&lt;font style=&quot;font-size: 28px;&quot;&gt;...&lt;/font&gt;" style="rounded=0;whiteSpace=wrap;html=1;" vertex="1" parent="1">
          <mxGeometry x="513.75" y="190" width="87.5" height="50" as="geometry" />
        </mxCell>
        <mxCell id="ZezLSghMhoon8Cjvw3io-26" value="Routes" style="rounded=0;whiteSpace=wrap;html=1;verticalAlign=top;" vertex="1" parent="1">
          <mxGeometry x="364" y="110" width="122.5" height="110" as="geometry" />
        </mxCell>
        <mxCell id="ZezLSghMhoon8Cjvw3io-29" style="edgeStyle=orthogonalEdgeStyle;rounded=0;orthogonalLoop=1;jettySize=auto;html=1;exitX=1;exitY=0.5;exitDx=0;exitDy=0;entryX=0;entryY=0.5;entryDx=0;entryDy=0;" edge="1" parent="1" source="ZezLSghMhoon8Cjvw3io-25" target="ZezLSghMhoon8Cjvw3io-22">
          <mxGeometry relative="1" as="geometry" />
        </mxCell>
        <mxCell id="ZezLSghMhoon8Cjvw3io-25" value="pdf.created" style="rounded=0;whiteSpace=wrap;html=1;" vertex="1" parent="1">
          <mxGeometry x="383" y="140" width="85" height="30" as="geometry" />
        </mxCell>
        <mxCell id="ZezLSghMhoon8Cjvw3io-3" value="" style="rounded=0;whiteSpace=wrap;html=1;direction=south;" vertex="1" parent="1">
          <mxGeometry x="20" y="70" width="140" height="150" as="geometry" />
        </mxCell>
        <mxCell id="ZezLSghMhoon8Cjvw3io-31" style="edgeStyle=orthogonalEdgeStyle;rounded=0;orthogonalLoop=1;jettySize=auto;html=1;exitX=1;exitY=0.5;exitDx=0;exitDy=0;entryX=0;entryY=0.5;entryDx=0;entryDy=0;" edge="1" parent="1" source="ZezLSghMhoon8Cjvw3io-1" target="ZezLSghMhoon8Cjvw3io-14">
          <mxGeometry relative="1" as="geometry" />
        </mxCell>
        <mxCell id="ZezLSghMhoon8Cjvw3io-1" value="DataCaptureService" style="rounded=0;whiteSpace=wrap;html=1;" vertex="1" parent="1">
          <mxGeometry x="27.5" y="100" width="125" height="50" as="geometry" />
        </mxCell>
        <mxCell id="ZezLSghMhoon8Cjvw3io-4" value="Producers" style="text;html=1;align=center;verticalAlign=middle;resizable=0;points=[];autosize=1;strokeColor=none;fillColor=none;" vertex="1" parent="1">
          <mxGeometry x="50" y="70" width="80" height="30" as="geometry" />
        </mxCell>
        <mxCell id="ZezLSghMhoon8Cjvw3io-5" value="&lt;font style=&quot;font-size: 28px;&quot;&gt;...&lt;/font&gt;" style="rounded=0;whiteSpace=wrap;html=1;" vertex="1" parent="1">
          <mxGeometry x="27.5" y="160" width="125" height="50" as="geometry" />
        </mxCell>
        <mxCell id="ZezLSghMhoon8Cjvw3io-28" style="edgeStyle=orthogonalEdgeStyle;rounded=0;orthogonalLoop=1;jettySize=auto;html=1;exitX=1;exitY=0.5;exitDx=0;exitDy=0;entryX=0;entryY=0.5;entryDx=0;entryDy=0;" edge="1" parent="1" source="ZezLSghMhoon8Cjvw3io-14" target="ZezLSghMhoon8Cjvw3io-25">
          <mxGeometry relative="1" as="geometry" />
        </mxCell>
        <mxCell id="ZezLSghMhoon8Cjvw3io-32" value="&lt;font style=&quot;font-size: 28px;&quot;&gt;...&lt;/font&gt;" style="rounded=0;whiteSpace=wrap;html=1;" vertex="1" parent="1">
          <mxGeometry x="383" y="180" width="85" height="30" as="geometry" />
        </mxCell>
        <mxCell id="ZezLSghMhoon8Cjvw3io-33" value="&lt;span style=&quot;background-color: rgb(255, 255, 255); color: rgb(48, 50, 64); font-family: &amp;quot;Sans Regular&amp;quot;, Arial, sans-serif; font-size: 16px; text-align: start;&quot;&gt;Sequence&amp;nbsp;Diagram&lt;/span&gt;" style="text;html=1;align=center;verticalAlign=middle;resizable=0;points=[];autosize=1;strokeColor=none;fillColor=none;fontSize=15;" vertex="1" parent="1">
          <mxGeometry x="345" y="310" width="160" height="30" as="geometry" />
        </mxCell>
        <mxCell id="ZezLSghMhoon8Cjvw3io-34" value="DataCaptureService" style="rounded=0;whiteSpace=wrap;html=1;" vertex="1" parent="1">
          <mxGeometry x="40" y="360" width="120" height="40" as="geometry" />
        </mxCell>
        <mxCell id="ZezLSghMhoon8Cjvw3io-36" value="pdfExchange" style="rounded=0;whiteSpace=wrap;html=1;" vertex="1" parent="1">
          <mxGeometry x="240" y="360" width="119.5" height="40" as="geometry" />
        </mxCell>
        <mxCell id="ZezLSghMhoon8Cjvw3io-38" value="ProcessingService" style="rounded=0;whiteSpace=wrap;html=1;" vertex="1" parent="1">
          <mxGeometry x="680" y="360" width="120" height="40" as="geometry" />
        </mxCell>
        <mxCell id="ZezLSghMhoon8Cjvw3io-40" value="pdfQueue" style="rounded=0;whiteSpace=wrap;html=1;" vertex="1" parent="1">
          <mxGeometry x="481.75" y="360" width="119.5" height="40" as="geometry" />
        </mxCell>
        <mxCell id="ZezLSghMhoon8Cjvw3io-62" style="edgeStyle=orthogonalEdgeStyle;rounded=0;orthogonalLoop=1;jettySize=auto;html=1;exitX=0.5;exitY=0;exitDx=0;exitDy=0;entryX=0.5;entryY=1;entryDx=0;entryDy=0;" edge="1" parent="1" source="ZezLSghMhoon8Cjvw3io-41" target="ZezLSghMhoon8Cjvw3io-42">
          <mxGeometry relative="1" as="geometry" />
        </mxCell>
        <mxCell id="ZezLSghMhoon8Cjvw3io-41" value="" style="rounded=0;whiteSpace=wrap;html=1;direction=south;" vertex="1" parent="1">
          <mxGeometry x="95" y="400" width="10" height="200" as="geometry" />
        </mxCell>
        <mxCell id="ZezLSghMhoon8Cjvw3io-55" style="edgeStyle=orthogonalEdgeStyle;rounded=0;orthogonalLoop=1;jettySize=auto;html=1;exitX=0.5;exitY=0;exitDx=0;exitDy=0;entryX=0.5;entryY=1;entryDx=0;entryDy=0;" edge="1" parent="1" source="ZezLSghMhoon8Cjvw3io-42" target="ZezLSghMhoon8Cjvw3io-43">
          <mxGeometry relative="1" as="geometry" />
        </mxCell>
        <mxCell id="ZezLSghMhoon8Cjvw3io-42" value="" style="rounded=0;whiteSpace=wrap;html=1;direction=south;" vertex="1" parent="1">
          <mxGeometry x="294.75" y="400" width="10" height="200" as="geometry" />
        </mxCell>
        <mxCell id="ZezLSghMhoon8Cjvw3io-57" style="edgeStyle=orthogonalEdgeStyle;rounded=0;orthogonalLoop=1;jettySize=auto;html=1;exitX=0.25;exitY=0;exitDx=0;exitDy=0;entryX=0.25;entryY=1;entryDx=0;entryDy=0;" edge="1" parent="1" source="ZezLSghMhoon8Cjvw3io-43" target="ZezLSghMhoon8Cjvw3io-44">
          <mxGeometry relative="1" as="geometry">
            <Array as="points">
              <mxPoint x="590" y="450" />
              <mxPoint x="590" y="450" />
            </Array>
          </mxGeometry>
        </mxCell>
        <mxCell id="ZezLSghMhoon8Cjvw3io-43" value="" style="rounded=0;whiteSpace=wrap;html=1;direction=south;" vertex="1" parent="1">
          <mxGeometry x="536.5" y="400" width="10" height="200" as="geometry" />
        </mxCell>
        <mxCell id="ZezLSghMhoon8Cjvw3io-64" style="edgeStyle=orthogonalEdgeStyle;rounded=0;orthogonalLoop=1;jettySize=auto;html=1;exitX=0.75;exitY=1;exitDx=0;exitDy=0;entryX=0.75;entryY=0;entryDx=0;entryDy=0;" edge="1" parent="1" source="ZezLSghMhoon8Cjvw3io-44" target="ZezLSghMhoon8Cjvw3io-43">
          <mxGeometry relative="1" as="geometry" />
        </mxCell>
        <mxCell id="ZezLSghMhoon8Cjvw3io-44" value="" style="rounded=0;whiteSpace=wrap;html=1;direction=south;" vertex="1" parent="1">
          <mxGeometry x="740" y="400" width="10" height="200" as="geometry" />
        </mxCell>
        <mxCell id="ZezLSghMhoon8Cjvw3io-46" value="Publish message" style="text;html=1;align=center;verticalAlign=middle;resizable=0;points=[];autosize=1;strokeColor=none;fillColor=none;" vertex="1" parent="1">
          <mxGeometry x="137.5" y="470" width="110" height="30" as="geometry" />
        </mxCell>
        <mxCell id="ZezLSghMhoon8Cjvw3io-56" value="Navigate message by route (pdf.created)" style="text;html=1;align=center;verticalAlign=middle;resizable=0;points=[];autosize=1;strokeColor=none;fillColor=none;" vertex="1" parent="1">
          <mxGeometry x="296.5" y="470" width="240" height="30" as="geometry" />
        </mxCell>
        <mxCell id="ZezLSghMhoon8Cjvw3io-63" value="Send message" style="text;html=1;align=center;verticalAlign=middle;resizable=0;points=[];autosize=1;strokeColor=none;fillColor=none;" vertex="1" parent="1">
          <mxGeometry x="592.5" y="420" width="100" height="30" as="geometry" />
        </mxCell>
        <mxCell id="ZezLSghMhoon8Cjvw3io-65" value="Consume confirmation" style="text;html=1;align=center;verticalAlign=middle;resizable=0;points=[];autosize=1;strokeColor=none;fillColor=none;" vertex="1" parent="1">
          <mxGeometry x="580" y="520" width="140" height="30" as="geometry" />
        </mxCell>
      </root>
    </mxGraphModel>
  </diagram>
</mxfile>
